<!--?xml version="1.0" encoding="utf-8"?-->
<!-- Generator: Adobe Illustrator 24.1.1, SVG Export Plug-In . SVG Version: 6.00 Build 0)  -->
<svg version="1.1" id="_x31_0" xmlns="http://www.w3.org/2000/svg" xmlns:xlink="http://www.w3.org/1999/xlink" x="0px" y="0px" viewBox="0 0 512 512" style="width: 256px; height: 256px; opacity: 1;" xml:space="preserve">
<style type="text/css">
	.st0{fill:#374149;}
</style>
<g>
	<path class="st0" d="M256.015,358.254c-18.808,0-35.843,7.633-48.179,19.965c-12.336,12.336-19.969,29.375-19.969,48.182
		c0,18.808,7.633,35.843,19.969,48.179c12.336,12.336,29.371,19.969,48.179,19.969c18.807,0,35.846-7.633,48.178-19.969
		c12.336-12.336,19.969-29.371,19.969-48.179c0-18.807-7.633-35.846-19.969-48.182C291.862,365.887,274.822,358.254,256.015,358.254
		z" style="fill: rgba(58, 171, 210, 0.84);"></path>
	<path class="st0" d="M494.455,94.09c-69.119-49.788-151.776-76.64-238.488-76.64c-86.704,0-169.357,26.922-238.458,76.818
		c-21.188,15.302-23.489,46.082-5.026,64.577l0.043,0.043c0.936,0.943,2.002,1.689,3.007,2.526c0.13,0.109,0.258,0.218,0.389,0.324
		c7.746,6.304,17.228,9.602,26.813,9.642c0.054,0,0.109,0.007,0.163,0.007c0.026,0,0.051-0.007,0.077-0.007
		c2.071-0.004,4.117-0.16,6.166-0.474c0.12-0.018,0.24-0.04,0.36-0.062c6.086-0.983,12.026-3.182,17.297-7
		c54.887-39.759,120.476-61.214,189.17-61.214c68.832,0,134.465,21.389,189.308,61.042c5.267,3.808,11.201,5.999,17.283,6.982
		c0.113,0.018,0.229,0.037,0.342,0.055c2.053,0.313,4.102,0.469,6.174,0.477c0.022,0,0.044,0.003,0.069,0.003l0,0
		c0.048,0,0.095-0.007,0.146-0.007c9.585-0.033,19.07-3.33,26.816-9.628c0.12-0.098,0.237-0.2,0.353-0.298
		c1.012-0.841,2.082-1.59,3.029-2.537C517.991,140.216,515.691,109.382,494.455,94.09z" style="fill: rgba(58, 171, 210, 0.84);"></path>
	<path class="st0" d="M366.51,214.966c-33.732-17.745-71.442-27.15-110.543-27.15c-39.133,0-76.862,9.42-110.611,27.19
		c-24.996,13.158-29.371,47.306-9.417,67.3l0.164,0.163c13.242,13.272,33.448,16.002,50.111,7.411
		c21.414-11.04,45.187-16.882,69.753-16.882c24.672,0,48.492,5.81,69.899,16.777c16.638,8.525,36.77,5.788,49.984-7.429l0.05-0.048
		C395.888,262.308,391.531,228.129,366.51,214.966z" style="fill: rgba(58, 171, 210, 0.84);"></path>
</g>
</svg>
